# xmcd CD database file
#
# Track frame offsets:
#	150
#	32772
#	75242
#	96910
#	120522
#	147100
#	167282
#
# Disc length: 2553 seconds
#
# Revision: 0
# Processed by: cddbd v1.5.2PL0 Copyright (c) Steve Scherf et al.
# Submitted via: CDex 1.51
#
DISCID=4609f707
DTITLE=Phillip Wilson - The Philip Wilson Project
DYEAR=1991
DGENRE=Jazz
TTITLE0=Cool
TTITLE1=Philadelphia
TTITLE2=Inappropriate Choices
TTITLE3=El Haz Malik Shabazz
TTITLE4=Steel and Breath
TTITLE5=Baliphone Dur
TTITLE6=Gammatron
EXTD=YEAR: 1991
EXTT0=
EXTT1=
EXTT2=
EXTT3=
EXTT4=
EXTT5=
EXTT6=
PLAYORDER=
